<svg width="142" height="28" viewBox="0 0 142 28" fill="none" xmlns="http://www.w3.org/2000/svg">
<g clip-path="url(#clip0_25_8)">
<g clip-path="url(#clip1_25_8)">
<g clip-path="url(#clip2_25_8)">
<path d="M13.9146 23.5764C16.6302 23.5764 19.2347 22.4976 21.1549 20.5774C23.0752 18.6571 24.154 16.0527 24.154 13.337C24.154 10.6214 23.0752 8.01693 21.1549 6.09667C19.2347 4.17641 16.6302 3.09762 13.9146 3.09762C11.1989 3.09762 8.59448 4.17641 6.67422 6.09667C4.75396 8.01693 3.67517 10.6214 3.67517 13.337C3.67517 16.0527 4.75396 18.6571 6.67422 20.5774C8.59448 22.4976 11.1989 23.5764 13.9146 23.5764Z" fill="#FFD21E"/>
<path d="M24.154 13.337C24.154 10.6214 23.0752 8.01693 21.1549 6.09667C19.2347 4.17641 16.6302 3.09762 13.9146 3.09762C11.1989 3.09762 8.59447 4.17641 6.67421 6.09667C4.75395 8.01693 3.67516 10.6214 3.67516 13.337C3.67516 16.0527 4.75395 18.6571 6.67421 20.5774C8.59447 22.4976 11.1989 23.5764 13.9146 23.5764C16.6302 23.5764 19.2347 22.4976 21.1549 20.5774C23.0752 18.6571 24.154 16.0527 24.154 13.337ZM2.49652 13.337C2.49652 11.8376 2.79186 10.3528 3.36567 8.96753C3.93948 7.58223 4.78052 6.32351 5.84079 5.26325C6.90105 4.20299 8.15977 3.36194 9.54507 2.78813C10.9304 2.21432 12.4151 1.91898 13.9146 1.91898C15.414 1.91898 16.8988 2.21432 18.2841 2.78813C19.6694 3.36194 20.9281 4.20299 21.9883 5.26325C23.0486 6.32351 23.8896 7.58223 24.4635 8.96753C25.0373 10.3528 25.3326 11.8376 25.3326 13.337C25.3326 16.3653 24.1296 19.2695 21.9883 21.4108C19.847 23.5521 16.9428 24.7551 13.9146 24.7551C10.8863 24.7551 7.98208 23.5521 5.84079 21.4108C3.69949 19.2695 2.49652 16.3653 2.49652 13.337Z" fill="#FF9D0B"/>
<path d="M17.2413 10.5525C17.6185 10.6821 17.7658 11.4541 18.1459 11.2538C18.4033 11.1171 18.6144 10.9072 18.7524 10.6506C18.8905 10.394 18.9494 10.1022 18.9216 9.81208C18.8938 9.52199 18.7807 9.24666 18.5964 9.0209C18.4121 8.79515 18.1651 8.62911 17.8864 8.54378C17.6078 8.45846 17.3101 8.45769 17.031 8.54156C16.7519 8.62543 16.504 8.79018 16.3185 9.01498C16.1331 9.23978 16.0185 9.51452 15.9892 9.80445C15.9599 10.0944 16.0173 10.3865 16.154 10.6438C16.3338 10.9827 16.9054 10.4317 17.2442 10.5495L17.2413 10.5525ZM10.3021 10.5525C9.92492 10.6821 9.77464 11.4541 9.39748 11.2538C9.14009 11.1171 8.92901 10.9072 8.79093 10.6506C8.65286 10.394 8.59398 10.1022 8.62176 9.81208C8.64954 9.52199 8.76272 9.24666 8.94699 9.0209C9.13126 8.79515 9.37833 8.62911 9.65698 8.54378C9.93562 8.45846 10.2333 8.45769 10.5124 8.54156C10.7915 8.62543 11.0394 8.79018 11.2248 9.01498C11.4103 9.23978 11.5249 9.51452 11.5542 9.80445C11.5835 10.0944 11.5261 10.3865 11.3894 10.6438C11.2096 10.9827 10.635 10.4317 10.2991 10.5495L10.3021 10.5525Z" fill="#3A3B45"/>
<path d="M13.8409 17.6214C16.7374 17.6214 17.6715 15.0401 17.6715 13.7142C17.6715 13.0247 17.2089 13.2427 16.4663 13.6081C15.7798 13.947 14.8575 14.4155 13.8439 14.4155C11.7253 14.4155 10.0133 12.3882 10.0133 13.7142C10.0133 15.0401 10.9444 17.6214 13.8439 17.6214H13.8409Z" fill="#FF323D"/>
<path fill-rule="evenodd" clip-rule="evenodd" d="M11.6222 16.9466C11.7776 16.6306 11.9966 16.3501 12.2652 16.1225C12.5339 15.8948 12.8466 15.725 13.1839 15.6236C13.3017 15.5882 13.4225 15.7915 13.5492 16.0007C13.6671 16.2011 13.7909 16.4044 13.9146 16.4044C14.0472 16.4044 14.1798 16.2041 14.3065 16.0066C14.4391 15.8004 14.5688 15.6 14.6955 15.6383C15.3284 15.8393 15.8574 16.2804 16.1688 16.867C17.2678 16.0007 17.6715 14.5864 17.6715 13.7142C17.6715 13.0247 17.2089 13.2427 16.4664 13.6081L16.4251 13.6287C15.7444 13.9676 14.8369 14.4155 13.8409 14.4155C12.845 14.4155 11.9404 13.9676 11.2568 13.6287C10.4907 13.2486 10.0104 13.0099 10.0104 13.7142C10.0104 14.6129 10.4406 16.0891 11.6222 16.9466Z" fill="#3A3B45"/>
<path d="M20.839 11.9374C21.093 11.9374 21.3366 11.8365 21.5162 11.6569C21.6958 11.4773 21.7967 11.2337 21.7967 10.9798C21.7967 10.7258 21.6958 10.4822 21.5162 10.3026C21.3366 10.123 21.093 10.0221 20.839 10.0221C20.5851 10.0221 20.3415 10.123 20.1619 10.3026C19.9823 10.4822 19.8814 10.7258 19.8814 10.9798C19.8814 11.2337 19.9823 11.4773 20.1619 11.6569C20.3415 11.8365 20.5851 11.9374 20.839 11.9374ZM7.1374 11.9374C7.39138 11.9374 7.63496 11.8365 7.81456 11.6569C7.99415 11.4773 8.09504 11.2337 8.09504 10.9798C8.09504 10.7258 7.99415 10.4822 7.81456 10.3026C7.63496 10.123 7.39138 10.0221 7.1374 10.0221C6.88342 10.0221 6.63984 10.123 6.46025 10.3026C6.28065 10.4822 6.17976 10.7258 6.17976 10.9798C6.17976 11.2337 6.28065 11.4773 6.46025 11.6569C6.63984 11.8365 6.88342 11.9374 7.1374 11.9374ZM5.16613 15.1786C4.68879 15.1786 4.26448 15.3731 3.96687 15.7297C3.71309 16.0431 3.57474 16.4343 3.57497 16.8376C3.38944 16.7818 3.19706 16.752 3.00334 16.7492C2.54661 16.7492 2.13409 16.923 1.84238 17.2383C1.58212 17.5086 1.41804 17.857 1.37544 18.2297C1.33283 18.6025 1.41408 18.9789 1.60665 19.3009C1.34587 19.5138 1.16087 19.8053 1.07921 20.1319C1.00849 20.3971 0.937775 20.9569 1.31494 21.5285C1.17355 21.7459 1.08942 21.9955 1.07035 22.2541C1.05129 22.5127 1.09792 22.772 1.20591 23.0077C1.50647 23.6913 2.25785 24.2276 3.71641 24.8052C4.62101 25.1646 5.45195 25.3945 5.45785 25.3974C6.50753 25.6882 7.58947 25.8466 8.67847 25.8689C10.4052 25.8689 11.6398 25.3385 12.3499 24.2954C13.4932 22.6188 13.3311 21.0836 11.849 19.6044C11.0328 18.7853 10.4877 17.5801 10.3757 17.3149C10.1459 16.5311 9.53887 15.6589 8.53409 15.6589C8.26678 15.6632 8.00433 15.7311 7.76858 15.8572C7.53283 15.9833 7.33059 16.1638 7.17865 16.3838C6.884 16.0125 6.59523 15.7208 6.33593 15.5529C5.98991 15.3186 5.58387 15.1887 5.16613 15.1786ZM5.16613 16.3573C5.31641 16.3573 5.50204 16.4221 5.70241 16.5488C6.33298 16.9495 7.54403 19.0328 7.98897 19.8431C8.1363 20.1142 8.39265 20.2291 8.61954 20.2291C9.07626 20.2291 9.42985 19.7783 8.66374 19.2037C7.50867 18.3403 7.91236 16.9289 8.46337 16.8435C8.48694 16.8376 8.51346 16.8376 8.53409 16.8376C9.03501 16.8376 9.256 17.7009 9.256 17.7009C9.256 17.7009 9.90425 19.3274 11.0181 20.4413C12.1289 21.5521 12.1879 22.4449 11.3775 23.6324C10.8236 24.4427 9.76576 24.6873 8.67847 24.6873C7.55582 24.6873 6.40075 24.4221 5.75545 24.2571C5.72304 24.2483 1.79229 23.1374 2.29026 22.1945C2.37276 22.0354 2.51125 21.9705 2.6851 21.9705C3.38639 21.9705 4.65932 23.0136 5.21033 23.0136C5.33114 23.0136 5.41659 22.9635 5.4549 22.8368C5.68768 21.9971 1.90131 21.6435 2.21954 20.4295C2.27847 20.2144 2.42875 20.1289 2.64385 20.1289C3.56908 20.1289 5.64937 21.7584 6.08547 21.7584C6.11788 21.7584 6.1444 21.7495 6.15619 21.7289C6.37424 21.3753 6.25342 21.1278 4.71236 20.1967C3.17718 19.2656 2.09579 18.7057 2.70868 18.0368C2.77939 17.9602 2.87958 17.9249 3.00334 17.9249C3.9374 17.9249 6.1444 19.9344 6.1444 19.9344C6.1444 19.9344 6.73961 20.5532 7.10204 20.5532C7.18455 20.5532 7.25527 20.5238 7.30241 20.4413C7.55582 20.0111 4.92746 18.0192 4.78013 17.1971C4.67994 16.6372 4.85085 16.3573 5.16613 16.3573Z" fill="#FF9D0B"/>
<path d="M11.3776 23.6324C12.1879 22.442 12.129 21.5492 11.0181 20.4383C9.90428 19.3274 9.25603 17.698 9.25603 17.698C9.25603 17.698 9.01441 16.7551 8.4634 16.8435C7.91238 16.9319 7.5087 18.3403 8.66376 19.2037C9.81588 20.067 8.43393 20.6534 7.98899 19.8431C7.54701 19.0328 6.33301 16.9495 5.70244 16.5488C5.07482 16.151 4.63283 16.372 4.78016 17.1971C4.92749 18.0192 7.55879 20.011 7.30244 20.4383C7.04609 20.8715 6.14443 19.9344 6.14443 19.9344C6.14443 19.9344 3.32454 17.368 2.7087 18.0368C2.09581 18.7057 3.17721 19.2656 4.71238 20.1967C6.25345 21.1278 6.37426 21.3753 6.15621 21.7289C5.93522 22.0825 2.5378 19.2155 2.21957 20.4324C1.90134 21.6435 5.68771 21.9941 5.45493 22.8339C5.2192 23.6737 2.78531 21.2486 2.29029 22.1915C1.78937 23.1374 5.72307 24.2482 5.75548 24.2571C7.02251 24.5871 10.249 25.2854 11.3776 23.6324Z" fill="#FFD21E"/>
<path d="M22.8103 15.1786C23.2877 15.1786 23.7149 15.3731 24.0096 15.7297C24.2634 16.0431 24.4017 16.4343 24.4015 16.8376C24.588 16.7815 24.7814 16.7518 24.9761 16.7492C25.4328 16.7492 25.8453 16.923 26.137 17.2383C26.3973 17.5086 26.5614 17.857 26.604 18.2297C26.6466 18.6025 26.5653 18.9789 26.3728 19.3009C26.6324 19.5143 26.8164 19.8057 26.8972 20.1319C26.968 20.3971 27.0387 20.9569 26.6615 21.5285C26.8029 21.7459 26.887 21.9955 26.9061 22.2541C26.9252 22.5127 26.8785 22.772 26.7705 23.0077C26.47 23.6913 25.7186 24.2276 24.263 24.8052C23.3554 25.1646 22.5245 25.3945 22.5186 25.3974C21.4689 25.6882 20.387 25.8466 19.298 25.8689C17.5713 25.8689 16.3367 25.3385 15.6265 24.2954C14.4833 22.6188 14.6453 21.0836 16.1275 19.6044C16.9466 18.7853 17.4917 17.5801 17.6037 17.3149C17.8335 16.5311 18.4376 15.6589 19.4424 15.6589C19.7097 15.6632 19.9721 15.7311 20.2079 15.8572C20.4436 15.9833 20.6459 16.1638 20.7978 16.3838C21.0925 16.0125 21.3812 15.7208 21.6435 15.5529C21.9887 15.3191 22.3936 15.1893 22.8103 15.1786ZM22.8103 16.3573C22.6601 16.3573 22.4774 16.4221 22.274 16.5488C21.6464 16.9495 20.4324 19.0328 19.9875 19.8431C19.9274 19.9587 19.837 20.0558 19.7259 20.1238C19.6148 20.1918 19.4872 20.2282 19.3569 20.2291C18.9031 20.2291 18.5466 19.7783 19.3157 19.2037C20.4678 18.3403 20.0641 16.9289 19.5131 16.8435C19.4897 16.8397 19.4661 16.8377 19.4424 16.8376C18.9415 16.8376 18.7205 17.7009 18.7205 17.7009C18.7205 17.7009 18.0722 19.3274 16.9613 20.4413C15.8475 21.5521 15.7886 22.4449 16.6019 23.6324C17.1529 24.4427 18.2136 24.6873 19.298 24.6873C20.4236 24.6873 21.5757 24.4221 22.224 24.2571C22.2534 24.2482 26.1871 23.1374 25.6891 22.1945C25.6037 22.0354 25.4682 21.9705 25.2943 21.9705C24.593 21.9705 23.3171 23.0136 22.7691 23.0136C22.6453 23.0136 22.5599 22.9635 22.5245 22.8368C22.2888 21.9971 26.0751 21.6435 25.7569 20.4295C25.7009 20.2144 25.5507 20.1289 25.3326 20.1289C24.4074 20.1289 22.3271 21.7584 21.891 21.7584C21.8615 21.7584 21.835 21.7495 21.8232 21.7289C21.6052 21.3753 21.723 21.1278 23.2612 20.1967C24.8022 19.2656 25.8836 18.7057 25.2648 18.0368C25.1971 17.9602 25.0969 17.9249 24.9761 17.9249C24.0391 17.9249 21.8321 19.9344 21.8321 19.9344C21.8321 19.9344 21.2368 20.5532 20.8774 20.5532C20.8369 20.555 20.7966 20.5455 20.7613 20.5257C20.7259 20.506 20.6967 20.4767 20.677 20.4413C20.4206 20.0111 23.049 18.0192 23.1963 17.1971C23.2965 16.6372 23.1256 16.3573 22.8103 16.3573Z" fill="#FF9D0B"/>
<path d="M16.6019 23.6324C15.7916 22.442 15.8476 21.5492 16.9614 20.4383C18.0722 19.3274 18.7205 17.698 18.7205 17.698C18.7205 17.698 18.9621 16.7551 19.5161 16.8435C20.0641 16.9319 20.4678 18.3403 19.3157 19.2037C18.1606 20.067 19.5455 20.6534 19.9875 19.8431C20.4324 19.0328 21.6464 16.9495 22.2741 16.5488C22.9017 16.151 23.3466 16.372 23.1964 17.1971C23.049 18.0192 20.4207 20.011 20.677 20.4383C20.9304 20.8715 21.8321 19.9344 21.8321 19.9344C21.8321 19.9344 24.6549 17.368 25.2678 18.0368C25.8807 18.7057 24.8022 19.2656 23.2641 20.1967C21.7231 21.1278 21.6052 21.3753 21.8203 21.7289C22.0413 22.0825 25.4387 19.2155 25.7569 20.4324C26.0752 21.6435 22.2917 21.9941 22.5245 22.8339C22.7603 23.6737 25.1912 21.2486 25.6892 22.1915C26.1871 23.1374 22.2564 24.2482 22.224 24.2571C20.954 24.5871 17.7275 25.2854 16.6019 23.6324Z" fill="#FFD21E"/>
</g>
</g>
</g>
<path d="M37.386 20V8.264H40.032V12.782H44.082V8.264H46.746V20H44.082V15.104H40.032V20H37.386ZM51.9809 20.216C51.0089 20.216 50.3009 19.898 49.8569 19.262C49.4249 18.614 49.2089 17.732 49.2089 16.616V11.072H51.8549V16.274C51.8549 16.91 51.9449 17.354 52.1249 17.606C52.3049 17.846 52.5869 17.966 52.9709 17.966C53.3069 17.966 53.5889 17.888 53.8169 17.732C54.0449 17.576 54.2909 17.324 54.5549 16.976V11.072H57.2009V20H55.0409L54.8429 18.758H54.7889C54.4169 19.202 54.0089 19.556 53.5649 19.82C53.1209 20.084 52.5929 20.216 51.9809 20.216ZM62.7154 23.798C62.0194 23.798 61.3894 23.72 60.8254 23.564C60.2614 23.408 59.8114 23.162 59.4754 22.826C59.1394 22.49 58.9714 22.058 58.9714 21.53C58.9714 20.81 59.3974 20.21 60.2494 19.73V19.658C60.0214 19.502 59.8234 19.304 59.6554 19.064C59.4994 18.824 59.4214 18.518 59.4214 18.146C59.4214 17.822 59.5174 17.51 59.7094 17.21C59.9014 16.91 60.1414 16.664 60.4294 16.472V16.4C60.1174 16.184 59.8354 15.872 59.5834 15.464C59.3434 15.056 59.2234 14.594 59.2234 14.078C59.2234 13.358 59.3974 12.764 59.7454 12.296C60.0934 11.816 60.5494 11.456 61.1134 11.216C61.6774 10.976 62.2774 10.856 62.9134 10.856C63.4414 10.856 63.9034 10.928 64.2994 11.072H67.5574V12.998H66.1354C66.2194 13.13 66.2854 13.298 66.3334 13.502C66.3934 13.706 66.4234 13.928 66.4234 14.168C66.4234 14.852 66.2674 15.416 65.9554 15.86C65.6434 16.304 65.2234 16.634 64.6954 16.85C64.1674 17.066 63.5734 17.174 62.9134 17.174C62.5654 17.174 62.2054 17.114 61.8334 16.994C61.6174 17.174 61.5094 17.396 61.5094 17.66C61.5094 17.888 61.6114 18.056 61.8154 18.164C62.0194 18.272 62.3674 18.326 62.8594 18.326H64.2994C65.4034 18.326 66.2434 18.506 66.8194 18.866C67.4074 19.214 67.7014 19.79 67.7014 20.594C67.7014 21.206 67.4974 21.752 67.0894 22.232C66.6814 22.724 66.1054 23.108 65.3614 23.384C64.6174 23.66 63.7354 23.798 62.7154 23.798ZM62.9134 15.572C63.2614 15.572 63.5494 15.446 63.7774 15.194C64.0174 14.942 64.1374 14.57 64.1374 14.078C64.1374 13.61 64.0174 13.256 63.7774 13.016C63.5494 12.764 63.2614 12.638 62.9134 12.638C62.5654 12.638 62.2714 12.758 62.0314 12.998C61.8034 13.238 61.6894 13.598 61.6894 14.078C61.6894 14.57 61.8034 14.942 62.0314 15.194C62.2714 15.446 62.5654 15.572 62.9134 15.572ZM63.1294 22.142C63.7294 22.142 64.2214 22.034 64.6054 21.818C64.9894 21.602 65.1814 21.344 65.1814 21.044C65.1814 20.768 65.0614 20.582 64.8214 20.486C64.5934 20.39 64.2574 20.342 63.8134 20.342H62.8954C62.5954 20.342 62.3434 20.33 62.1394 20.306C61.9474 20.294 61.7794 20.27 61.6354 20.234C61.3114 20.522 61.1494 20.816 61.1494 21.116C61.1494 21.452 61.3294 21.704 61.6894 21.872C62.0614 22.052 62.5414 22.142 63.1294 22.142ZM72.3306 23.798C71.6346 23.798 71.0046 23.72 70.4406 23.564C69.8766 23.408 69.4266 23.162 69.0906 22.826C68.7546 22.49 68.5866 22.058 68.5866 21.53C68.5866 20.81 69.0126 20.21 69.8646 19.73V19.658C69.6366 19.502 69.4386 19.304 69.2706 19.064C69.1146 18.824 69.0366 18.518 69.0366 18.146C69.0366 17.822 69.1326 17.51 69.3246 17.21C69.5166 16.91 69.7566 16.664 70.0446 16.472V16.4C69.7326 16.184 69.4506 15.872 69.1986 15.464C68.9586 15.056 68.8386 14.594 68.8386 14.078C68.8386 13.358 69.0126 12.764 69.3606 12.296C69.7086 11.816 70.1646 11.456 70.7286 11.216C71.2926 10.976 71.8926 10.856 72.5286 10.856C73.0566 10.856 73.5186 10.928 73.9146 11.072H77.1726V12.998H75.7506C75.8346 13.13 75.9006 13.298 75.9486 13.502C76.0086 13.706 76.0386 13.928 76.0386 14.168C76.0386 14.852 75.8826 15.416 75.5706 15.86C75.2586 16.304 74.8386 16.634 74.3106 16.85C73.7826 17.066 73.1886 17.174 72.5286 17.174C72.1806 17.174 71.8206 17.114 71.4486 16.994C71.2326 17.174 71.1246 17.396 71.1246 17.66C71.1246 17.888 71.2266 18.056 71.4306 18.164C71.6346 18.272 71.9826 18.326 72.4746 18.326H73.9146C75.0186 18.326 75.8586 18.506 76.4346 18.866C77.0226 19.214 77.3166 19.79 77.3166 20.594C77.3166 21.206 77.1126 21.752 76.7046 22.232C76.2966 22.724 75.7206 23.108 74.9766 23.384C74.2326 23.66 73.3506 23.798 72.3306 23.798ZM72.5286 15.572C72.8766 15.572 73.1646 15.446 73.3926 15.194C73.6326 14.942 73.7526 14.57 73.7526 14.078C73.7526 13.61 73.6326 13.256 73.3926 13.016C73.1646 12.764 72.8766 12.638 72.5286 12.638C72.1806 12.638 71.8866 12.758 71.6466 12.998C71.4186 13.238 71.3046 13.598 71.3046 14.078C71.3046 14.57 71.4186 14.942 71.6466 15.194C71.8866 15.446 72.1806 15.572 72.5286 15.572ZM72.7446 22.142C73.3446 22.142 73.8366 22.034 74.2206 21.818C74.6046 21.602 74.7966 21.344 74.7966 21.044C74.7966 20.768 74.6766 20.582 74.4366 20.486C74.2086 20.39 73.8726 20.342 73.4286 20.342H72.5106C72.2106 20.342 71.9586 20.33 71.7546 20.306C71.5626 20.294 71.3946 20.27 71.2506 20.234C70.9266 20.522 70.7646 20.816 70.7646 21.116C70.7646 21.452 70.9446 21.704 71.3046 21.872C71.6766 22.052 72.1566 22.142 72.7446 22.142ZM78.7598 20V11.072H81.4058V20H78.7598ZM80.0738 9.758C79.6298 9.758 79.2698 9.632 78.9938 9.38C78.7178 9.128 78.5798 8.792 78.5798 8.372C78.5798 7.952 78.7178 7.616 78.9938 7.364C79.2698 7.112 79.6298 6.986 80.0738 6.986C80.5178 6.986 80.8778 7.112 81.1538 7.364C81.4298 7.616 81.5678 7.952 81.5678 8.372C81.5678 8.792 81.4298 9.128 81.1538 9.38C80.8778 9.632 80.5178 9.758 80.0738 9.758ZM83.7345 20V11.072H85.8945L86.0745 12.206H86.1465C86.5305 11.846 86.9505 11.534 87.4065 11.27C87.8745 10.994 88.4085 10.856 89.0085 10.856C89.9805 10.856 90.6825 11.18 91.1145 11.828C91.5585 12.464 91.7805 13.34 91.7805 14.456V20H89.1345V14.798C89.1345 14.15 89.0445 13.706 88.8645 13.466C88.6965 13.226 88.4205 13.106 88.0365 13.106C87.7005 13.106 87.4125 13.184 87.1725 13.34C86.9325 13.484 86.6685 13.694 86.3805 13.97V20H83.7345ZM97.2212 23.798C96.5252 23.798 95.8952 23.72 95.3312 23.564C94.7672 23.408 94.3172 23.162 93.9812 22.826C93.6452 22.49 93.4772 22.058 93.4772 21.53C93.4772 20.81 93.9032 20.21 94.7552 19.73V19.658C94.5272 19.502 94.3292 19.304 94.1612 19.064C94.0052 18.824 93.9272 18.518 93.9272 18.146C93.9272 17.822 94.0232 17.51 94.2152 17.21C94.4072 16.91 94.6472 16.664 94.9352 16.472V16.4C94.6232 16.184 94.3412 15.872 94.0892 15.464C93.8492 15.056 93.7292 14.594 93.7292 14.078C93.7292 13.358 93.9032 12.764 94.2512 12.296C94.5992 11.816 95.0552 11.456 95.6192 11.216C96.1832 10.976 96.7832 10.856 97.4192 10.856C97.9472 10.856 98.4092 10.928 98.8052 11.072H102.063V12.998H100.641C100.725 13.13 100.791 13.298 100.839 13.502C100.899 13.706 100.929 13.928 100.929 14.168C100.929 14.852 100.773 15.416 100.461 15.86C100.149 16.304 99.7292 16.634 99.2012 16.85C98.6732 17.066 98.0792 17.174 97.4192 17.174C97.0712 17.174 96.7112 17.114 96.3392 16.994C96.1232 17.174 96.0152 17.396 96.0152 17.66C96.0152 17.888 96.1172 18.056 96.3212 18.164C96.5252 18.272 96.8732 18.326 97.3652 18.326H98.8052C99.9092 18.326 100.749 18.506 101.325 18.866C101.913 19.214 102.207 19.79 102.207 20.594C102.207 21.206 102.003 21.752 101.595 22.232C101.187 22.724 100.611 23.108 99.8672 23.384C99.1232 23.66 98.2412 23.798 97.2212 23.798ZM97.4192 15.572C97.7672 15.572 98.0552 15.446 98.2832 15.194C98.5232 14.942 98.6432 14.57 98.6432 14.078C98.6432 13.61 98.5232 13.256 98.2832 13.016C98.0552 12.764 97.7672 12.638 97.4192 12.638C97.0712 12.638 96.7772 12.758 96.5372 12.998C96.3092 13.238 96.1952 13.598 96.1952 14.078C96.1952 14.57 96.3092 14.942 96.5372 15.194C96.7772 15.446 97.0712 15.572 97.4192 15.572ZM97.6352 22.142C98.2352 22.142 98.7272 22.034 99.1112 21.818C99.4952 21.602 99.6872 21.344 99.6872 21.044C99.6872 20.768 99.5672 20.582 99.3272 20.486C99.0992 20.39 98.7632 20.342 98.3192 20.342H97.4012C97.1012 20.342 96.8492 20.33 96.6452 20.306C96.4532 20.294 96.2852 20.27 96.1412 20.234C95.8172 20.522 95.6552 20.816 95.6552 21.116C95.6552 21.452 95.8352 21.704 96.1952 21.872C96.5672 22.052 97.0472 22.142 97.6352 22.142ZM107.47 20V8.264H114.868V10.496H110.116V13.214H114.184V15.446H110.116V20H107.47ZM118.258 20.216C117.442 20.216 116.794 19.958 116.314 19.442C115.834 18.914 115.594 18.272 115.594 17.516C115.594 16.58 115.99 15.848 116.782 15.32C117.574 14.792 118.852 14.438 120.616 14.258C120.592 13.862 120.472 13.55 120.256 13.322C120.052 13.082 119.704 12.962 119.212 12.962C118.84 12.962 118.462 13.034 118.078 13.178C117.694 13.322 117.286 13.52 116.854 13.772L115.9 12.026C116.464 11.678 117.064 11.396 117.7 11.18C118.348 10.964 119.02 10.856 119.716 10.856C120.856 10.856 121.732 11.186 122.344 11.846C122.956 12.506 123.262 13.52 123.262 14.888V20H121.102L120.922 19.082H120.85C120.478 19.418 120.076 19.694 119.644 19.91C119.224 20.114 118.762 20.216 118.258 20.216ZM119.158 18.164C119.458 18.164 119.716 18.098 119.932 17.966C120.16 17.822 120.388 17.636 120.616 17.408V15.842C119.68 15.962 119.032 16.154 118.672 16.418C118.312 16.67 118.132 16.97 118.132 17.318C118.132 17.606 118.222 17.822 118.402 17.966C118.594 18.098 118.846 18.164 119.158 18.164ZM129.388 20.216C128.56 20.216 127.81 20.036 127.138 19.676C126.478 19.304 125.95 18.77 125.554 18.074C125.17 17.366 124.978 16.52 124.978 15.536C124.978 14.54 125.194 13.694 125.626 12.998C126.058 12.302 126.628 11.774 127.336 11.414C128.044 11.042 128.806 10.856 129.622 10.856C130.174 10.856 130.66 10.946 131.08 11.126C131.512 11.306 131.896 11.534 132.232 11.81L130.99 13.52C130.57 13.172 130.168 12.998 129.784 12.998C129.148 12.998 128.638 13.226 128.254 13.682C127.882 14.138 127.696 14.756 127.696 15.536C127.696 16.304 127.882 16.922 128.254 17.39C128.638 17.846 129.118 18.074 129.694 18.074C129.982 18.074 130.264 18.014 130.54 17.894C130.816 17.762 131.068 17.606 131.296 17.426L132.34 19.154C131.896 19.538 131.416 19.814 130.9 19.982C130.384 20.138 129.88 20.216 129.388 20.216ZM137.389 20.216C136.537 20.216 135.769 20.03 135.085 19.658C134.401 19.286 133.861 18.752 133.465 18.056C133.069 17.36 132.871 16.52 132.871 15.536C132.871 14.564 133.069 13.73 133.465 13.034C133.873 12.338 134.401 11.804 135.049 11.432C135.697 11.048 136.375 10.856 137.083 10.856C137.935 10.856 138.637 11.048 139.189 11.432C139.753 11.804 140.173 12.314 140.449 12.962C140.737 13.598 140.881 14.324 140.881 15.14C140.881 15.368 140.869 15.596 140.845 15.824C140.821 16.04 140.797 16.202 140.773 16.31H135.427C135.547 16.958 135.817 17.438 136.237 17.75C136.657 18.05 137.161 18.2 137.749 18.2C138.385 18.2 139.027 18.002 139.675 17.606L140.557 19.208C140.101 19.52 139.591 19.766 139.027 19.946C138.463 20.126 137.917 20.216 137.389 20.216ZM135.409 14.564H138.631C138.631 14.072 138.511 13.67 138.271 13.358C138.043 13.034 137.665 12.872 137.137 12.872C136.729 12.872 136.363 13.016 136.039 13.304C135.715 13.58 135.505 14 135.409 14.564Z" fill="black"/>
<defs>
<clipPath id="clip0_25_8">
<rect width="28" height="25.93" fill="white" transform="translate(0 1.035)"/>
</clipPath>
<clipPath id="clip1_25_8">
<rect width="28" height="25.93" fill="white" transform="translate(0 1.035)"/>
</clipPath>
<clipPath id="clip2_25_8">
<rect width="27.9926" height="25.93" fill="white" transform="translate(0.00372314 1.035)"/>
</clipPath>
</defs>
</svg>
